<?xml version="1.0" standalone="no"?>
<!DOCTYPE svg PUBLIC "-//W3C//DTD SVG 20010904//EN"
 "http://www.w3.org/TR/2001/REC-SVG-20010904/DTD/svg10.dtd">
<svg version="1.0" xmlns="http://www.w3.org/2000/svg"
 width="596.000000pt" height="591.000000pt" viewBox="0 0 596.000000 591.000000"
 preserveAspectRatio="xMidYMid meet">

<g transform="translate(0.000000,591.000000) scale(0.100000,-0.100000)"
fill="#000000" stroke="none">
<path d="M0 2955 l0 -2955 2980 0 2980 0 0 2955 0 2955 -2980 0 -2980 0 0
-2955z m3195 2825 c526 -50 972 -206 1365 -478 426 -294 755 -672 984 -1131
140 -279 225 -538 277 -841 27 -159 38 -567 19 -747 -46 -457 -223 -932 -484
-1297 -270 -379 -554 -635 -959 -865 -429 -244 -947 -382 -1436 -381 -135 0
-444 34 -588 65 -381 80 -638 192 -1020 441 -380 249 -707 622 -923 1053 -162
324 -226 523 -287 886 -15 89 -18 166 -18 410 0 285 1 308 28 460 67 377 169
674 328 950 193 335 316 495 547 710 389 361 804 586 1292 699 108 25 340 63
420 69 107 8 354 6 455 -3z"/>
<path d="M2765 5614 c-205 -17 -503 -81 -685 -147 -364 -132 -701 -342 -979
-611 -159 -155 -289 -321 -267 -343 8 -8 475 -25 487 -17 4 2 10 18 14 35 8
34 60 90 108 116 18 9 55 17 84 17 42 0 61 -6 95 -30 135 -94 136 -272 2 -355
-47 -29 -109 -40 -155 -29 -40 11 -119 74 -119 96 0 11 -23 14 -117 14 -65 0
-201 3 -303 7 l-185 6 -45 -44 c-40 -40 -109 -158 -125 -216 l-6 -21 588 -4
c449 -2 593 -6 610 -16 24 -13 42 -77 26 -93 -20 -20 -229 -29 -744 -29 -507
0 -547 -1 -561 -17 -8 -10 -32 -69 -53 -131 -31 -92 -36 -115 -25 -122 20 -12
150 -19 560 -28 l365 -7 34 38 c34 39 84 69 134 81 48 11 132 -19 177 -64 49
-49 76 -131 61 -185 -39 -143 -165 -212 -287 -156 -46 21 -101 82 -112 124
l-7 28 -495 2 -495 2 -12 -75 c-14 -91 -40 -339 -49 -471 l-6 -97 193 -7 c107
-3 296 -5 422 -3 l227 3 0 -76 0 -76 -287 -6 c-157 -4 -344 -7 -415 -7 l-128
0 0 -29 c0 -48 28 -195 44 -226 8 -17 17 -60 20 -97 7 -84 30 -174 66 -258 15
-36 34 -90 40 -121 32 -143 99 -214 178 -191 21 6 118 14 217 17 154 5 419 24
561 40 53 6 54 4 54 -192 l0 -153 268 0 c268 0 268 0 320 26 85 42 141 148
127 243 -14 96 -63 160 -153 198 -58 24 -360 32 -967 23 -297 -5 -542 -7 -544
-5 -2 2 -9 36 -15 74 -10 59 -10 71 2 76 7 3 104 5 215 5 241 0 496 14 627 35
52 8 210 20 350 26 140 6 272 15 293 20 54 14 112 70 131 126 42 122 -1 239
-108 296 -39 21 -56 22 -299 25 l-257 3 2 -165 3 -166 -310 -7 c-311 -6 -712
3 -734 16 -6 4 -14 35 -17 69 l-7 62 415 0 416 0 7 185 c4 101 5 191 1 200 -5
15 33 16 397 13 l403 -3 77 -38 c95 -47 166 -116 210 -206 30 -62 32 -72 32
-171 -1 -87 -5 -114 -23 -154 -33 -72 -76 -121 -137 -155 -30 -17 -55 -36 -55
-41 0 -6 24 -21 53 -34 65 -29 139 -104 174 -175 21 -43 28 -73 31 -144 7
-149 -22 -239 -106 -330 -65 -68 -117 -102 -205 -132 l-76 -25 -385 0 -386 0
-2 203 -3 202 -30 -3 c-109 -9 -535 -13 -535 -4 0 12 -59 22 -66 11 -24 -40
220 -416 381 -587 101 -108 300 -285 398 -356 152 -108 385 -238 532 -296 103
-41 294 -104 365 -120 30 -7 62 -16 72 -21 27 -14 27 -14 43 348 l6 122 -41
21 c-61 31 -95 90 -95 164 0 216 280 275 340 72 28 -92 13 -158 -46 -215 l-39
-39 0 -255 0 -255 103 -11 c56 -7 114 -13 129 -15 l26 -2 7 150 c3 83 5 315 3
516 l-3 365 -62 3 -63 3 0 299 0 300 38 0 c22 0 73 3 115 6 l77 7 0 -192 0
-192 409 3 409 3 6 -50 c3 -27 6 -80 6 -117 l0 -68 -403 0 -403 0 4 -518 c2
-284 7 -519 10 -522 4 -3 62 -3 129 0 l123 5 5 135 c2 74 7 196 11 271 l6 136
-41 38 c-77 72 -81 189 -9 271 55 62 113 78 200 54 69 -20 128 -110 128 -198
0 -65 -61 -144 -134 -172 l-26 -10 0 -249 c0 -137 4 -252 9 -255 10 -7 154 18
287 49 440 104 899 344 1201 628 147 139 228 229 335 371 166 221 324 528 412
803 85 265 122 550 113 867 -13 444 -115 823 -329 1220 -178 332 -419 625
-688 839 -191 151 -481 319 -700 405 -179 70 -447 138 -655 168 -100 14 -445
26 -540 18z m-624 -534 c274 -79 640 -201 753 -249 27 -12 85 -32 130 -45 82
-24 222 -72 235 -81 7 -4 -295 -318 -346 -359 -22 -18 -23 -18 -60 12 -21 16
-99 64 -173 107 -114 65 -294 180 -500 318 -25 17 -79 53 -120 80 -114 76
-240 169 -240 176 0 11 135 79 159 80 13 1 86 -17 162 -39z m1859 -38 c0 -74
-21 -146 -60 -202 -41 -61 -156 -180 -270 -281 -52 -46 -181 -167 -286 -269
-490 -475 -643 -621 -689 -657 -27 -22 -104 -94 -171 -160 -124 -123 -141
-133 -218 -133 -52 0 -61 12 -61 83 0 53 4 69 26 98 56 73 496 528 734 759 53
52 173 174 266 270 522 544 525 546 677 549 l52 1 0 -58z m-981 -27 l66 -66
-40 -34 c-22 -20 -50 -38 -61 -41 -21 -5 -136 45 -148 65 -5 8 8 28 74 114 12
15 26 27 32 27 6 0 40 -29 77 -65z m1603 -265 c45 -13 136 -93 154 -137 18
-43 18 -122 -1 -166 -22 -52 -71 -104 -110 -117 l-35 -12 -1 -86 c-1 -93 0
-1275 1 -1329 l0 -33 55 0 c123 0 224 -40 312 -122 177 -169 156 -479 -42
-605 -47 -29 -57 -50 -27 -59 106 -34 181 -110 213 -216 18 -58 21 -87 17
-167 -4 -83 -9 -105 -39 -166 -44 -90 -116 -163 -207 -209 -123 -62 -155 -66
-549 -66 l-353 0 0 808 0 807 236 2 c130 1 239 4 242 8 4 3 8 329 10 724 l4
718 -24 6 c-87 22 -156 175 -120 267 21 53 71 108 123 134 57 28 84 31 141 16z
m-977 -428 c7 -38 141 -491 170 -572 35 -98 175 -571 175 -590 0 -21 -46 -90
-60 -90 -4 0 -43 46 -87 103 -180 233 -317 403 -471 587 l-163 194 208 208
c113 114 210 205 214 202 5 -3 11 -21 14 -42z m355 -292 c0 -8 -133 -140 -141
-140 -4 0 -10 12 -14 28 -3 15 -18 55 -31 89 l-25 63 43 50 43 51 62 -68 c34
-37 63 -70 63 -73z m-1800 -250 c63 -5 127 -10 143 -10 15 0 27 -3 27 -7 0
-13 -161 -203 -171 -203 -18 0 -103 48 -197 109 -83 55 -92 64 -80 78 23 28
90 53 128 48 19 -3 87 -10 150 -15z m3106 -141 c118 -57 180 -219 126 -325
-25 -48 -84 -105 -137 -133 -56 -29 -144 -28 -210 3 -200 93 -189 362 19 457
57 26 148 25 202 -2z m-2602 -166 c8 -29 56 -332 56 -357 0 -20 -6 -24 -47
-29 -26 -3 -51 -3 -57 -1 -15 6 -138 182 -140 200 -1 14 161 204 175 204 4 0
10 -8 13 -17z m1006 -697 c0 -99 -1 -104 -22 -110 -13 -3 -197 -6 -410 -6
l-388 0 -2 -172 -3 -173 -70 -3 c-38 -2 -89 0 -112 3 l-43 6 0 273 c0 150 3
276 6 279 4 4 240 6 525 6 l519 0 0 -103z m-210 -692 l0 -107 -292 8 c-161 4
-349 8 -418 9 -154 2 -183 13 -188 70 -4 50 15 95 43 102 42 10 312 21 583 23
l272 1 0 -106z m380 -996 c25 -13 60 -43 79 -68 26 -34 40 -45 60 -44 26 2
496 5 516 4 6 0 8 -26 5 -67 l-5 -68 -265 -3 -265 -3 -37 -60 c-43 -68 -94
-98 -167 -99 -89 0 -181 77 -202 171 -20 87 40 201 126 240 54 25 102 24 155
-3z m-1955 -114 c29 -13 35 -22 43 -67 5 -29 10 -56 12 -62 7 -27 -1 -65 -14
-65 -8 0 -16 -6 -19 -13 -7 -19 -61 -10 -83 14 -9 11 -22 29 -28 42 -11 22
-15 22 -266 27 l-255 5 -22 45 c-26 51 -29 76 -10 83 6 3 146 6 310 6 252 1
304 -1 332 -15z"/>
<path d="M4517 4619 c-20 -12 -47 -60 -47 -85 0 -29 65 -84 100 -84 45 0 90
47 90 93 0 53 -32 87 -83 87 -23 0 -50 -5 -60 -11z"/>
<path d="M4220 2603 c0 -32 3 -136 7 -230 l6 -173 254 0 c275 0 294 3 346 56
44 44 60 83 64 159 4 62 1 76 -24 125 -30 58 -71 93 -132 110 -20 5 -145 10
-278 10 l-243 0 0 -57z"/>
<path d="M4227 1984 c-4 -4 -7 -117 -7 -251 l0 -244 273 3 c257 3 274 4 313
25 97 52 140 130 132 241 -8 109 -58 177 -151 205 -56 17 -546 35 -560 21z"/>
<path d="M5155 3505 c-47 -24 -65 -52 -65 -99 0 -54 39 -95 98 -103 35 -5 44
-1 81 32 26 24 41 46 41 61 0 32 -23 85 -43 102 -25 21 -79 24 -112 7z"/>
<path d="M3729 961 c-35 -35 -38 -77 -8 -115 25 -32 68 -55 89 -48 50 16 90
93 69 134 -32 64 -102 77 -150 29z"/>
<path d="M1456 4524 c-30 -31 -34 -70 -11 -114 31 -59 94 -63 140 -8 32 38 32
78 -1 117 -35 41 -89 43 -128 5z"/>
<path d="M1476 3619 c-37 -44 -36 -96 4 -134 19 -18 40 -28 60 -28 46 0 90 46
90 94 0 55 -40 99 -90 99 -30 0 -44 -6 -64 -31z"/>
<path d="M2389 1011 c-44 -35 -20 -133 36 -147 57 -14 105 27 105 91 0 62 -90
98 -141 56z"/>
<path d="M3221 1004 c-26 -33 -26 -60 -1 -101 48 -79 150 -41 150 56 0 66
-107 98 -149 45z"/>
</g>
</svg>
